<?xml version="1.0" standalone="no"?><!DOCTYPE svg PUBLIC "-//W3C//DTD SVG 1.1//EN" "http://www.w3.org/Graphics/SVG/1.1/DTD/svg11.dtd"><svg t="1729001307751" class="icon" viewBox="0 0 1024 1024" version="1.1" xmlns="http://www.w3.org/2000/svg" p-id="21287" width="512" height="512" xmlns:xlink="http://www.w3.org/1999/xlink"><path d="M350.037333 205.653333a32 32 0 1 1 27.050667 58.026667A320.426667 320.426667 0 0 0 192 554.24c0 176.938667 143.274667 320.384 319.957333 320.384s319.957333-143.445333 319.957334-320.384a320.426667 320.426667 0 0 0-184.448-290.304 32 32 0 1 1 27.178666-57.941333 384.426667 384.426667 0 0 1 221.269334 348.245333c0 212.266667-171.904 384.384-384 384.384C299.904 938.666667 128 766.549333 128 554.282667a384.426667 384.426667 0 0 1 222.037333-348.586667zM512 106.496a32 32 0 0 1 31.701333 27.648l0.298667 4.352v320a32 32 0 0 1-63.701333 4.352l-0.298667-4.352v-320a32 32 0 0 1 32-32z" fill="#d4bff9" p-id="21288"></path></svg>