<?xml version="1.0" standalone="no"?><!DOCTYPE svg PUBLIC "-//W3C//DTD SVG 1.1//EN" "http://www.w3.org/Graphics/SVG/1.1/DTD/svg11.dtd"><svg t="1729003153238" class="icon" viewBox="0 0 1024 1024" version="1.1" xmlns="http://www.w3.org/2000/svg" p-id="13530" xmlns:xlink="http://www.w3.org/1999/xlink" width="512" height="512"><path d="M250.026667 382.933333l112.853333-14.208a32 32 0 0 1 7.978667 63.488l-170.538667 21.504a32 32 0 0 1-33.792-20.053333l-56.490667-144.213333a32 32 0 1 1 59.605334-23.296l29.568 75.434666a404.010667 404.010667 0 0 1 71.68-96.938666c153.813333-153.856 400.213333-157.44 550.357333-7.296 150.101333 150.101333 146.517333 396.501333-7.338667 550.4-153.856 153.813333-400.256 157.44-550.4 7.253333a375.594667 375.594667 0 0 1-106.026666-210.816 32 32 0 1 1 63.274666-9.514667 311.594667 311.594667 0 0 0 88.021334 175.104c124.842667 124.842667 330.752 121.856 459.904-7.296 129.152-129.152 132.138667-335.061333 7.296-459.904-124.8-124.8-330.666667-121.813333-459.861334 7.338667a339.285333 339.285333 0 0 0-66.133333 93.013333z" fill="#abd7f1" p-id="13531"></path></svg>
